<svg xmlns="http://www.w3.org/2000/svg" xmlns:xlink="http://www.w3.org/1999/xlink" width="728" height="131" version="1.1" viewBox="0 0 728 131"><title>Group 4</title><desc>Created with Sketch.</desc><defs><path id="path-1" d="M0.492338144,131 L0.492338144,0.903448276 L63.6076866,0.903448276 C66.3455807,0.903448276 69.2095191,1.3551679 72.1995876,2.25862069 C75.1896562,3.16207348 77.7293751,4.37268207 79.8188206,5.89048276 C80.5393191,6.46869255 81.475953,7.26371908 82.6287505,8.27558621 L85.9790515,11.7448276 L89.1132041,15.1056552 C90.121902,16.1897985 90.9144384,17.0932378 91.4908371,17.816 C92.931834,19.767458 93.9765411,22.0441249 94.6249897,24.646069 C95.2734383,27.248013 95.5976577,29.7415053 95.5976577,32.1266207 L95.5976577,50.5569655 C95.5976577,55.9054061 94.2287312,60.6032901 91.4908371,64.6507586 C90.9864882,65.4457971 90.2479884,66.3853739 89.2753155,67.4695172 C88.3026426,68.5536606 87.2399233,69.6739253 86.0871258,70.8303448 C84.9343283,71.9867644 83.781548,73.0708915 82.6287505,74.0827586 C81.475953,75.0946257 80.5393191,75.8535147 79.8188206,76.3594483 C78.9542225,77.0822105 78.0896373,77.6604116 77.2250392,78.094069 L74.6312577,79.3950345 L78.8461526,87.2008276 L83.4933443,95.7655172 L88.2486103,104.330207 L92.6796536,112.569655 L102.730557,131 L73.334367,131 L47.612701,81.3464828 L26.8624495,81.3464828 L26.8624495,131 L0.492338144,131 Z M26.8624495,55.9776552 L63.6076866,55.9776552 C63.7517863,55.9776552 64.0760057,55.8150361 64.5803546,55.4897931 C65.0847036,55.1645501 65.6250693,54.7308993 66.201468,54.1888276 C66.7778668,53.6467559 67.3362447,53.0866236 67.8766186,52.5084138 C68.4169924,51.930204 68.8672972,51.3520029 69.2275464,50.7737931 L69.2275464,31.4761379 C68.6511476,30.6088232 67.840599,29.6692464 66.7958763,28.6573793 C65.7511535,27.6455122 64.6884343,26.8504856 63.6076866,26.2722759 L26.8624495,26.2722759 L26.8624495,55.9776552 Z M127.251398,131 L172.210276,0.903448276 L201.390318,0.903448276 L246.133047,131 L218.033748,131 L209.38781,106.064828 L164.212784,106.064828 L155.350697,131 L127.251398,131 Z M172.210276,80.696 L201.390318,80.696 L186.692223,38.8482759 L172.210276,80.696 Z M277.138342,131 L277.138342,111.702345 L332.688495,26.2722759 L278.002936,26.2722759 L278.002936,0.903448276 L367.056099,0.903448276 L367.056099,20.417931 L312.154392,105.631172 L367.056099,105.631172 L367.056099,131 L277.138342,131 Z M401.087472,131 L401.087472,111.702345 L456.637625,26.2722759 L401.952066,26.2722759 L401.952066,0.903448276 L491.005229,0.903448276 L491.005229,20.417931 L436.103522,105.631172 L491.005229,105.631172 L491.005229,131 L401.087472,131 Z M525.901196,131 L525.901196,0.903448276 L552.271307,0.903448276 L552.271307,105.414345 L609.766796,105.414345 L609.766796,131 L525.901196,131 Z M642.28513,131 L642.28513,0.903448276 L727.447621,0.903448276 L727.447621,26.2722759 L668.655241,26.2722759 L668.655241,52.942069 L725.502285,52.942069 L725.502285,78.3108966 L668.655241,78.3108966 L668.655241,105.631172 L727.447621,105.631172 L727.447621,131 L642.28513,131 Z"/><linearGradient id="linearGradient-3" x1=".258%" x2="101.258%" y1="49.75%" y2="49.75%"><stop offset="0%" stop-color="#3023AE"/><stop offset="70.741%" stop-color="#53A0FD"/><stop offset="100%" stop-color="#B4EC51"/></linearGradient><linearGradient id="linearGradient-4" x1="101.258%" x2=".258%" y1="49.75%" y2="49.75%"><stop offset="0%" stop-color="#3023AE"/><stop offset="70.741%" stop-color="#53A0FD"/><stop offset="100%" stop-color="#B4EC51"/></linearGradient><linearGradient id="linearGradient-5" x1=".258%" x2="101.258%" y1="49.75%" y2="49.75%"><stop offset="0%" stop-color="#3023AE"/><stop offset="70.741%" stop-color="#53A0FD"/><stop offset="100%" stop-color="#B4EC51"/></linearGradient><linearGradient id="linearGradient-6" x1=".258%" x2="101.258%" y1="49.75%" y2="49.75%"><stop offset="0%" stop-color="#3023AE"/><stop offset="70.741%" stop-color="#53A0FD"/><stop offset="100%" stop-color="#B4EC51"/></linearGradient><linearGradient id="linearGradient-7" x1=".258%" x2="101.258%" y1="49.75%" y2="49.75%"><stop offset="0%" stop-color="#3023AE"/><stop offset="70.741%" stop-color="#53A0FD"/><stop offset="100%" stop-color="#B4EC51"/></linearGradient><linearGradient id="linearGradient-8" x1=".258%" x2="101.258%" y1="49.75%" y2="49.75%"><stop offset="0%" stop-color="#3023AE"/><stop offset="70.741%" stop-color="#53A0FD"/><stop offset="100%" stop-color="#B4EC51"/></linearGradient></defs><g id="Page-2" fill="none" fill-rule="evenodd" stroke="none" stroke-width="1"><g id="repo-banner-copy-2" transform="translate(-636.000000, -235.000000)"><g id="Group-4" transform="translate(636.000000, 235.000000)"><mask id="mask-2" fill="#fff"><use xlink:href="#path-1"/></mask><use id="RAZZLE" fill="#FFF" xlink:href="#path-1"/><g id="Group-3" mask="url(#mask-2)"><g transform="translate(-444.305155, -524.505747)"><g id="Group-2-Copy-7" transform="translate(633.050861, 719.459322) rotate(30.000000) translate(-633.050861, -719.459322) translate(-26.949139, 596.959322)"><g id="Group"><rect id="Rectangle-2" width="1319.293" height="34.905" x="0" y="0" fill="#000"/><rect id="Rectangle-2-Copy" width="1319.293" height="34.905" x="0" y="34.905" fill="url(#linearGradient-3)"/><rect id="Rectangle-2-Copy-2" width="1319.293" height="34.905" x="0" y="69.81" fill="#000"/></g><g id="Group-Copy" transform="translate(0.000000, 104.715033)"><rect id="Rectangle-2" width="1319.293" height="34.905" x="0" y="34.905" fill="#000"/><rect id="Rectangle-2-Copy" width="1319.293" height="34.905" x="0" y="69.81" fill="url(#linearGradient-3)"/><rect id="Rectangle-2-Copy-3" width="1319.293" height="34.905" x="-40.981" y="-10.981" fill="url(#linearGradient-4)"/><polygon id="Rectangle-2-Copy-2" fill="#000" points="0 104.715 1319.293 104.715 1319.293 139.62 0 139.62"/></g></g><g id="Group-2-Copy-8" transform="translate(968.915464, 528.270115) rotate(30.000000) translate(-968.915464, -528.270115) translate(309.212371, 405.551724)"><g id="Group"><rect id="Rectangle-2" width="1319.293" height="34.905" x="0" y="0" fill="#000"/><rect id="Rectangle-2-Copy" width="1319.293" height="34.905" x="0" y="34.905" fill="url(#linearGradient-3)"/><polygon id="Rectangle-2-Copy-2" fill="#000" points="0 69.81 1319.293 69.81 1319.293 104.715 0 104.715"/></g><g id="Group-Copy" transform="translate(0.000000, 104.715033)"><rect id="Rectangle-2" width="1319.293" height="34.905" x="0" y="34.905" fill="#000"/><polygon id="Rectangle-2-Copy" fill="url(#linearGradient-3)" points="0 69.81 1319.293 69.81 1319.293 104.715 0 104.715"/><rect id="Rectangle-2-Copy-3" width="1319.293" height="34.905" x="0" y="0" fill="url(#linearGradient-3)"/><polygon id="Rectangle-2-Copy-2" fill="#000" points="0 104.715 1319.293 104.715 1319.293 139.62 0 139.62"/></g></g><g id="Group-2-Copy-4" transform="translate(985.780500, 662.177937) rotate(20.000000) translate(-985.780500, -662.177937) translate(325.780500, 539.677937)"><g id="Group"><rect id="Rectangle-2" width="1319.293" height="34.905" x="0" y="0" fill="#000"/><rect id="Rectangle-2-Copy" width="1319.293" height="34.905" x="0" y="34.905" fill="url(#linearGradient-3)"/><polygon id="Rectangle-2-Copy-2" fill="#000" points="0 69.81 1319.293 69.81 1319.293 104.715 0 104.715"/></g><g id="Group-Copy" transform="translate(0.000000, 104.715033)"><rect id="Rectangle-2" width="1319.293" height="34.905" x="0" y="34.905" fill="#000"/><polygon id="Rectangle-2-Copy" fill="url(#linearGradient-3)" points="0 69.81 1319.293 69.81 1319.293 104.715 0 104.715"/><rect id="Rectangle-2-Copy-3" width="1319.293" height="34.905" x="0" y="0" fill="url(#linearGradient-3)"/><rect id="Rectangle-2-Copy-2" width="1319.293" height="34.905" x="0" y="104.715" fill="#000"/></g></g><g id="Group-2" transform="translate(422.143248, 689.210834) rotate(-60.000000) translate(-422.143248, -689.210834) translate(130.143248, 600.710834)"><g id="Group" transform="translate(25.775224, 0.932554)"><rect id="Rectangle-2" width="534" height="24.768" x="0" y="0" fill="#000"/><rect id="Rectangle-2-Copy" width="534" height="24.768" x="0" y="24.768" fill="url(#linearGradient-5)"/><rect id="Rectangle-2-Copy-2" width="534" height="24.768" x="0" y="49.536" fill="#000"/></g><g id="Group-Copy" transform="translate(0.853119, 73.433497)"><rect id="Rectangle-2" width="580.323" height="27" x="2.034" y="25.726" fill="#000"/><polygon id="Rectangle-2-Copy" fill="url(#linearGradient-6)" points="25 52.726 559.391 52.726 559.391 77.589 25 77.589"/><rect id="Rectangle-2-Copy-3" width="580.323" height="27" x=".534" y=".402" fill="url(#linearGradient-7)"/><polygon id="Rectangle-2-Copy-2" fill="#000" points="25 77.589 559.391 77.589 559.391 102.452 25 102.452"/></g></g><g id="Group-2-Copy-6" transform="translate(1296.140206, 436.419540) rotate(30.000000) translate(-1296.140206, -436.419540) translate(636.437113, 313.701149)"><g id="Group"><rect id="Rectangle-2" width="1319.293" height="34.905" x="0" y="0" fill="#000"/><rect id="Rectangle-2-Copy" width="1319.293" height="34.905" x="0" y="34.905" fill="url(#linearGradient-3)"/><rect id="Rectangle-2-Copy-2" width="1319.293" height="34.905" x="0" y="69.81" fill="#000"/></g><g id="Group-Copy" transform="translate(0.000000, 104.715033)"><rect id="Rectangle-2" width="1319.293" height="34.905" x="0" y="34.905" fill="#000"/><polygon id="Rectangle-2-Copy" fill="url(#linearGradient-3)" points="0 69.81 1319.293 69.81 1319.293 104.715 0 104.715"/><rect id="Rectangle-2-Copy-3" width="1319.293" height="34.905" x="0" y="0" fill="url(#linearGradient-3)"/><polygon id="Rectangle-2-Copy-2" fill="#000" points="0 104.715 1319.293 104.715 1319.293 139.62 0 139.62"/></g></g><g id="Group-2-Copy" transform="translate(1351.103422, 662.012673) rotate(50.000000) translate(-1351.103422, -662.012673) translate(940.571464, 527.248306)"><g id="Group"><rect id="Rectangle-2" width="821.064" height="38.289" x="0" y="0" fill="#000"/><rect id="Rectangle-2-Copy" width="821.064" height="38.289" x="0" y="38.289" fill="url(#linearGradient-8)"/><polygon id="Rectangle-2-Copy-2" fill="#000" points="0 76.578 821.064 76.578 821.064 114.867 0 114.867"/></g><g id="Group-Copy" transform="translate(0.000000, 114.866995)"><rect id="Rectangle-2" width="821.064" height="38.289" x="0" y="38.289" fill="#000"/><rect id="Rectangle-2-Copy" width="821.064" height="38.289" x="0" y="76.578" fill="url(#linearGradient-8)"/><rect id="Rectangle-2-Copy-3" width="821.064" height="38.289" x="0" y="0" fill="url(#linearGradient-8)"/><polygon id="Rectangle-2-Copy-2" fill="#000" points="0 114.867 821.064 114.867 821.064 153.156 0 153.156"/></g></g></g></g></g></g></g></svg>