<svg xmlns="http://www.w3.org/2000/svg" viewBox="0 0 38 38" aria-hidden="true">
  <title>Twitter</title>
  <path d="M37.9 8c-1.4.6-2.9 1-4.4 1.2 1.6-1 2.8-2.5 3.4-4.3-1.5.9-3.1 1.5-4.9 1.9-1.4-1.5-3.4-2.4-5.6-2.4-4.3 0-7.7 3.5-7.7 7.7 0 .6.1 1.2.2 1.8-6.4-.3-12.1-3.4-15.9-8.1-.7 1.1-1 2.5-1 3.9 0 2.7 1.2 5 3.2 6.4-1.3 0-2.3-.4-3.7-1v.1c0 3.7 2.9 6.9 6.4 7.6-.9.2-1.4.3-2.1.3-.5 0-.9 0-1.4-.1 1 3.1 3.9 5.3 7.2 5.4-2.6 2.1-6 3.3-9.6 3.3-.6 0-1.2 0-1.8-.1C3.6 33.7 7.7 35 12 35c14.2 0 22-11.8 22-22v-1c1.5-1.1 2.8-2.5 3.9-4"/>
</svg>